<svg version="1.1" xmlns="http://www.w3.org/2000/svg" xmlns:xlink="http://www.w3.org/1999/xlink" width="800px" height="800px" xml:space="preserve">
    <path id="cityID-4201" d="M536.3369458736145,391.8138816139048L536.6134060271302,391.57108438982334L536.8898661806461,391.8948045574832L537.3032997738585,392.2184490441867L537.5797599273744,392.1375450130559L537.7179900041324,392.29934835044963L538.5461138276187,392.29934835044963L538.5461138276187,392.4611327935622L538.1314235973448,393.18745933785135L538.2696536741028,393.51080227295233L538.5461138276187,393.8326007129441L538.6843439043766,393.8326007129441L538.8225739811346,393.9942065187302L539.097777497589,394.07500237630563L539.097777497589,394.15579353872346L538.8225739811346,394.23658000727403L538.8225739811346,394.39813886793013L539.236007574347,394.55967896858857L539.236007574347,394.6404419871401L539.6506978046209,394.7212003195578L539.7889278813786,395.446347121849L539.6506978046209,395.6077657034724L539.7889278813786,396.0112304423357L539.3742376511047,396.17111691515703L539.3742376511047,396.4131120641078L539.5124677278627,396.6550652917829L539.7889278813786,396.73570705781293L540.0641313978333,397.1388461216027L540.7552817816229,397.45980831777194L540.8935118583809,397.94331102272395L541.1687153748355,397.94331102272395L541.1687153748355,397.7821620026353L541.4451755283512,397.86273883014474L541.7216356818674,397.7015805389192L541.9980958353829,397.7821620026353L541.8598657586251,397.45980831777194L541.9980958353829,397.2179943248084L542.5497595053537,396.9776044442412L542.8262196588694,397.1388461216027L542.6879895821114,397.1388461216027L542.6879895821114,397.37920829646646L543.1014231753238,396.8969766327626L543.239653252082,396.9776044442412L543.239653252082,397.29860363257137L543.5161134055977,397.5404036977643L543.3778833288397,397.62099443772127L543.6543434823559,397.62099443772127L543.9308036358714,397.7015805389192L544.0677770755681,397.37920829646646L543.9308036358714,397.05822760676136L544.0677770755681,396.8969766327626L544.2060071523258,396.73570705781293L544.7589274593579,396.6550652917829L544.7589274593579,396.8969766327626L544.8971575361156,396.8163441710461L545.1723610525701,397.05822760676136L545.4488212060862,396.8163441710461L545.3105911293283,396.4937677962107L545.4488212060862,396.4937677962107L545.4488212060862,396.57441887167533L545.4488212060862,396.8969766327626L545.587051282844,396.9776044442412L545.4488212060862,397.2179943248084L545.587051282844,397.29860363257137L545.587051282844,397.7015805389192L546.0017415131178,398.10444150819353L546.6916352598464,398.50572238141507L546.6916352598464,398.66678824414174L546.2769450295725,398.82783561802097L546.2769450295725,398.98886451323233L546.1387149528143,399.14987493994937L545.8635114363599,398.90835237482435L545.7252813596021,398.90835237482435L545.587051282844,399.06937203451673L545.7252813596021,399.3108669083409L545.587051282844,399.6313323657978L545.4488212060862,399.55085704502386L545.0353876128736,399.7922691876605L545.1723610525701,399.9531875917333L545.1723610525701,400.11408758816196L544.8971575361156,399.8727306912865L544.6206973825997,400.03363989026957L544.2060071523258,399.8727306912865L544.2060071523258,399.9531875917333L544.0677770755681,400.3554030906513L543.6543434823559,400.6770927618144L542.9644497356276,400.99724725888836L543.239653252082,401.3991647908782L543.239653252082,401.64026035002007L543.239653252082,401.80096784379566L543.5161134055977,401.7206163839654L543.9308036358714,402.1208674047572L543.7925735591136,402.20119609596145L543.7925735591136,402.2815202205898L543.7925735591136,402.3618397799009L542.9644497356276,402.522465207608L542.8262196588694,402.522465207608L541.9980958353829,403.004232053991L541.3069454515935,403.16332507120603L540.8935118583809,403.4843758010868L540.8935118583809,403.8855869268846L541.1687153748355,404.60602302299856L540.8935118583809,404.8465730697436L540.4788216281072,404.8465730697436L540.4788216281072,405.08708238947605L540.6170517048652,405.4863837439404L540.6170517048652,407.2469285107143L540.2023614745913,407.487032900802L540.2023614745913,407.727096933168L539.9271579581366,408.12565965583326L539.9271579581366,408.605533059064L539.6506978046209,408.6854963183011L539.5124677278627,409.4035117377766L539.6506978046209,409.9628494361946L539.7889278813786,410.1211677940759L539.9271579581366,410.5205173061475L540.0641313978333,410.9197558844819L539.9271579581366,411.159245847167L539.7889278813786,411.159245847167L539.9271579581366,411.31743250930435L539.7889278813786,411.95580758914247L539.236007574347,411.5568563187585L539.097777497589,411.6366554107726L538.8225739811346,411.3972448692503L537.5797599273744,410.99959030161494L536.8898661806461,411.31743250930435L536.1987157968563,411.47705280532637L535.9235122804018,411.47705280532637L535.7852822036439,411.23906697804074L535.7852822036439,410.99959030161494L535.6470521268859,410.83991703614186L535.508822050128,410.2010465785646L534.9559017430963,409.8030609133734L534.9559017430963,409.4035117377766L534.404238073126,408.4455931387055L533.5761142496397,408.5255653329443L533.7143443263974,408.28563534092694L533.5761142496397,408.20564973491275L533.2996540961235,407.56705872746204L532.7479904261534,407.1668847398482L532.3333001958795,407.2469285107143L531.9198666026671,407.56705872746204L531.5051763723932,408.365616475112L531.5051763723932,408.84540944107033L530.9522560653616,409.00385119815127L530.6770525489069,408.605533059064L530.1241322418753,408.28563534092694L529.9859021651171,408.12565965583326L530.1241322418753,407.8856625678235L530.400592395391,407.8056545841032L530.5388224721491,407.32696779366825L530.5388224721491,407.2469285107143L530.1241322418753,407.2469285107143L530.1241322418753,406.6865277989775L529.8489287254206,406.5278288941394L529.8489287254206,406.28756298352914L529.9859021651171,405.967145391029L529.5724685719047,405.967145391029L529.4342384951467,405.8069095530775L529.296008418389,405.7267848693171L529.5724685719047,405.3275510159241L530.262362318633,405.1672431181035L530.400592395391,404.8465730697436L530.9522560653616,404.2064740960836L531.2287162188773,403.7251161059921L531.3669462956352,403.7251161059921L531.5051763723932,403.8855869268846L531.6434064491511,403.80535378717343L531.6434064491511,403.4041199414841L531.7816365259091,403.16332507120603L532.1950701191215,403.0830510131051L532.3333001958795,402.92394897191843L532.3333001958795,402.522465207608L532.1950701191215,402.3618397799009L532.3333001958795,402.20119609596145L532.1950701191215,402.0405341457172L532.6097603493954,401.4795345547381L532.0568400423635,401.31879044785563L532.0568400423635,401.0776399311881L531.9198666026671,401.15802801927396L531.7816365259091,400.99724725888836L531.7816365259091,400.8364481565904L532.0568400423635,400.91685000111056L531.9198666026671,400.7560417240642L532.0568400423635,400.4358323986407L531.9198666026671,400.4358323986407L531.9198666026671,400.2749691870862L532.1950701191215,400.3554030906513L532.3333001958795,400.11408758816196L532.7479904261534,400.11408758816196L533.0231939426078,399.9531875917333L533.4378841728817,400.11408758816196L533.4378841728817,399.9531875917333L534.1277779196098,400.03363989026957L534.5424681498839,400.2749691870862L534.9559017430963,400.1945306866784L535.232361896612,400.4358323986407L535.232361896612,400.3554030906513L535.37059197337,399.55085704502386L535.232361896612,399.3108669083409L535.232361896612,398.7473142415509L535.094131819854,398.5862576245205L535.094131819854,398.02387858164866L535.094131819854,397.62099443772127L535.232361896612,397.37920829646646L535.37059197337,397.05822760676136L535.232361896612,396.8163441710461L535.232361896612,396.6550652917829L535.094131819854,396.4937677962107L535.232361896612,396.17111691515703L535.37059197337,396.0904425436874L535.508822050128,395.8498585486904L535.37059197337,395.2849098470545L535.9235122804018,394.8019539671296L536.1987157968563,394.23658000727403L536.0604857200983,393.8326007129441L535.7852822036439,393.7517907621523L535.508822050128,393.5916262430635L535.37059197337,393.02575961940306L535.6470521268859,392.9449026929267L535.508822050128,392.783174698997L535.6470521268859,392.3802429331423L535.7852822036439,392.3802429331423L536.0604857200983,392.1375450130559L536.0604857200983,391.8948045574832Z" fill="rgb(208, 50, 24)" cursor="pointer" stroke="#f9f9fb" stroke-width="0.44" opacity="1.3831908914073086"></path>
</svg>
