<?xml version="1.0" encoding="utf-8"?>
<!-- Generator: Adobe Illustrator 24.0.0, SVG Export Plug-In . SVG Version: 6.00 Build 0) -->
<svg version="1.1" id="Layer_1" xmlns="http://www.w3.org/2000/svg" xmlns:xlink="http://www.w3.org/1999/xlink" x="0px" y="0px" viewBox="0 0 360 100" enable-background="new 0 0 360 100" xml:space="preserve">
	<animateMotion xlink:href="#mouse" path="M0,0 L40,20" dur="1.8s" begin="0s" repeatCount="indefinite">
	</animateMotion>
	<path id="cityID-4201" fill="none" stroke="#E2E2E2" stroke-miterlimit="10" d="M61.56,10.25l1.08-0.95c0.61,1,3.19,3.53,7.57,2.85
	c-4.59,6.89,4.11,4.97,4.87,14.54c-3.85,0.31,2.18,5.74,5.4,7.57v-0.63c0.39,0.57,0.86-0.38,3.25,0c-0.91-0.46,0.3-4.58,3.24-2.52
	h-0.54v0.94c1.8-0.54,0.4-4.36,3.24,0.63l-0.54,0.32c3.72,1.67,0.53-3.64,5.41-3.78v0.95c0.13-0.83,3.62,2.22,2.16-1.58h0.54
	c0.28,0.14-0.65,1.33,0.54,1.89l-0.54,0.94c-0.44,3.01,7.86,4.11,2.7,7.57c-0.18,0.7-2.02-3.95-2.16,1.89
	c-0.59-0.38-0.68-0.32-2.16,0.63c-0.2,0.11,0.62-0.07,0.54,1.26c-0.73-0.97-0.26-0.08-3.78-0.95c-0.05,1.45-1.51,3.32-4.86,4.4
	c0.23,0.68,1.36,0.9,1.08,3.15c0.73-0.23,1.31-0.55,2.71,1.25c-9.19,5-7.85,0.08-13.52,10.67c2.71,14.75-4.93,7.36-2.7,24.72
	c0.65,0.69,0.57,0.81,0,3.12c-20.74-9.98-3.09,8.23-24.33-13.43l0.54-0.94c-4.79-8.41-5.33-2.76-10.82,2.81
	c-1.39-3.57-5.49-0.49-1.62-6.88h-1.62c1.02-2.3-1.93-1.24-0.54-5.01c0.17-0.27-0.83,0.78-2.7-0.94
	c6.08-5.07,10.63-8.23,12.98-16.63c-0.02-0.6-2.29,0.64-2.17-1.57c-0.02,0.05-1.13,0.89-1.08-0.94l1.08,0.31
	c-0.18-0.48-1.04-0.24,0-1.88h-0.54v-0.63c1.16,1.12,0.89-1.99,5.94-0.63v-0.63c2.11,0.48,2.89,0.06,7.03,1.89
	c-2.88-10.35,5.24-20.12,0.54-29.02l1.08-0.32C58.15,14.78,58.37,12.17,61.56,10.25z" />
	<circle cx="79.89" cy="49.94" stroke="#881719" fill="none">
		<animate attributeName="opacity" attributeType="XML" values="0; .8; .8; .8; 0.4; 0" begin="0s" dur=".9s" repeatCount="indefinite" />
		<animate attributeName="stroke-width" attributeType="XML" values="0; 1.5; 2; 1.5; 0.8; 0" begin="0s" dur=".9s" repeatCount="indefinite" />
		<animate attributeName="r" attributeType="XML" from="0" to="12" begin="0s" dur=".9s" repeatCount="indefinite" />
	</circle>
	<circle cx="79.89" cy="49.94" stroke="#881719" fill="none">
		<animate attributeName="opacity" attributeType="XML" values="0; 0; .8; 0.56; 0" begin="0s" dur=".9s" repeatCount="indefinite" />
		<animate attributeName="stroke-width" attributeType="XML" values="0; 0; 3; 4.5; 4.5" begin="0s" dur=".9s" repeatCount="indefinite" />
		<animate attributeName="r" attributeType="XML" values="0; 0; 1.4; 2; 2.1" begin="0s" dur=".9s" repeatCount="indefinite" />
	</circle>
	<path fill="#F8F9FC" stroke="#7D7D7D" stroke-miterlimit="10" d="M89.94,61.73l-6.28-3.13c-0.24-0.1-0.48-0.15-0.75-0.15h-1.04v-8.3
	c0-1.15-0.93-2.07-2.07-2.07s-2.07,0.93-2.07,2.07V65l-4.74-0.99c-0.1-0.02-0.21-0.03-0.32-0.03c-0.43,0-0.82,0.18-1.1,0.46
	l-1.09,1.11l6.83,6.83c0.38,0.37,0.9,0.61,1.47,0.61h9.4c1.04,0,1.84-0.77,1.98-1.77l1.04-7.29c0.01-0.1,0.02-0.19,0.02-0.28
	C91.21,62.78,90.68,62.04,89.94,61.73z" />
	<rect x="150" y="25" fill="none" stroke="#E2E2E2" stroke-miterlimit="10" width="160" height="20" />
	<rect x="150" y="45" fill="none" stroke="#E2E2E2" stroke-miterlimit="10" width="160" height="20" />
	<rect x="253.68" y="42.23" fill="#88181A20" stroke="#88181A" stroke-miterlimit="10">
		<animate attributeName="width" attributeType="XML" values="0; 40" begin="0s" dur="1.8s" repeatCount="indefinite" />
		<animate attributeName="height" attributeType="XML" values="0; 20" begin="0s" dur="1.8s" repeatCount="indefinite" />
		<animate attributeName="opacity" attributeType="XML" values="0; 1; 1; 1; 1; 0" begin="0s" dur="1.8s" repeatCount="indefinite" />
	</rect>
	<g transform="translate(-40,-20)">
		<path id="mouse" fill="#F8F9FC" stroke="#7D7D7D" stroke-miterlimit="10" d="M304.07,74.5l-6.28-3.13c-0.24-0.1-0.48-0.15-0.75-0.15h-1.04v-8.3
	c0-1.15-0.93-2.07-2.07-2.07c-1.15,0-2.07,0.93-2.07,2.07v14.85l-4.74-0.99c-0.1-0.02-0.21-0.03-0.33-0.03
	c-0.43,0-0.82,0.18-1.1,0.46l-1.09,1.11l6.83,6.83c0.38,0.37,0.9,0.61,1.47,0.61h9.4c1.04,0,1.84-0.77,1.98-1.77l1.04-7.29
	c0.01-0.1,0.02-0.19,0.02-0.28C305.34,75.55,304.81,74.81,304.07,74.5z">
			<animate attributeName="opacity" attributeType="XML" values="0; 1; 1; 1; 1; 0" begin="0s" dur="1.8s" repeatCount="indefinite" />
		</path>
	</g>
</svg>
